<?xml version="1.0" encoding="utf-8"?>
<!-- Generator: $$$/GeneralStr/196=Adobe Illustrator 27.6.0, SVG Export Plug-In . SVG Version: 6.00 Build 0)  -->
<svg version="1.1" id="Livello_1" xmlns="http://www.w3.org/2000/svg" xmlns:xlink="http://www.w3.org/1999/xlink" x="0px" y="0px"
	 viewBox="0 0 128 128" style="enable-background:new 0 0 128 128;" xml:space="preserve">
<style type="text/css">
	.st0{fill:url(#bg_00000047743765567638687820000001076602118799918776_);}
	.st1{fill:#E73F1E;}
	.st2{opacity:0.9;fill:#1D1D2A;}
	.st3{fill:#FFFFFF;}
</style>
<radialGradient id="bg_00000049935549403678097040000007921106895680081554_" cx="64" cy="64" r="64" gradientUnits="userSpaceOnUse">
	<stop  offset="0" style="stop-color:#1B213E"/>
	<stop  offset="1" style="stop-color:#181B2C"/>
</radialGradient>
<rect id="bg" style="fill:url(#bg_00000049935549403678097040000007921106895680081554_);" width="128" height="128"/>
<g id="pin">
	<path class="st1" d="M80.2,16.4C75.7,11.9,69.9,9.7,64,9.7s-11.7,2.2-16.2,6.7c-8.9,8.9-8.9,23.4,0,32.4L64,64.9l16.2-16.2
		c4.5-4.5,6.7-10.3,6.7-16.2S84.7,20.8,80.2,16.4z M64,44.7c-6.7,0-12.1-5.4-12.1-12.1S57.3,20.4,64,20.4s12.1,5.4,12.1,12.1
		S70.7,44.7,64,44.7z"/>
</g>
<rect id="rect" x="-1.9" y="72" class="st2" width="131.8" height="18.9"/>
<g>
	<g>
		<path class="st3" d="M9.2,73.2c0.1,0.1,0.1,0.3,0.1,0.4c0,0.1,0,0.2,0,0.3L5.8,87.3c-0.1,0.3-0.2,0.5-0.3,0.6C5.4,88,5.2,88,5,88
			c-0.2,0-0.3-0.1-0.4-0.2c-0.1-0.1-0.1-0.2-0.1-0.4c0-0.1,0-0.2,0-0.3l3.5-13.3c0.1-0.2,0.1-0.3,0.2-0.4c0.1-0.1,0.1-0.2,0.2-0.2
			C8.6,73,8.7,73,8.8,73C9,73,9.1,73.1,9.2,73.2z"/>
		<path class="st3" d="M13.5,85.7c-0.2-0.1-0.3-0.3-0.3-0.6c-0.1-0.4-0.2-1.6-0.5-3.5s-0.4-2.9-0.4-3.1c0-0.2,0.1-0.4,0.2-0.6
			c0.1-0.1,0.3-0.2,0.5-0.2c0.2,0,0.4,0.1,0.5,0.2c0.1,0.1,0.2,0.4,0.2,0.7l0.7,6.6l-0.3,0l1.6-5.6c0.1-0.3,0.2-0.5,0.4-0.6
			s0.4-0.2,0.6-0.2s0.4,0.1,0.6,0.2s0.3,0.3,0.4,0.6l1.5,5.4l-0.2,0.1l0.7-6.5c0-0.3,0.1-0.5,0.2-0.7c0.1-0.1,0.3-0.2,0.5-0.2
			c0.2,0,0.4,0.1,0.5,0.2c0.1,0.1,0.2,0.3,0.2,0.6c0,0.1-0.1,1.1-0.3,2.8c-0.2,1.7-0.4,3-0.5,3.8c0,0.3-0.1,0.5-0.3,0.6
			s-0.4,0.2-0.7,0.2c-0.3,0-0.6-0.1-0.8-0.2s-0.3-0.3-0.4-0.6l-1.4-5.3h0.2l-1.4,5.3c-0.1,0.2-0.1,0.4-0.2,0.5s-0.2,0.2-0.4,0.3
			c-0.1,0-0.3,0.1-0.5,0.1C13.9,85.9,13.7,85.8,13.5,85.7z"/>
		<path class="st3" d="M28.1,85.6c-0.1-0.1-0.2-0.3-0.2-0.5l0-0.4c-0.1,0.2-0.3,0.3-0.5,0.5c-0.3,0.2-0.6,0.3-0.9,0.5
			C26,85.9,25.5,86,25.1,86c-0.6,0-1.2-0.1-1.7-0.3s-0.9-0.5-1.1-0.9c-0.3-0.4-0.4-0.9-0.4-1.4c0-0.5,0.2-1,0.5-1.4s0.7-0.7,1.2-0.9
			c0.5-0.2,1.1-0.3,1.8-0.3c0.3,0,0.7,0,1,0.1s0.6,0.1,0.9,0.2c0.3,0.1,0.4,0.2,0.6,0.2v-1.1c0-0.4-0.1-0.7-0.3-0.9
			c-0.2-0.2-0.5-0.4-0.9-0.5c-0.4-0.1-0.7-0.2-1.1-0.2c-0.3,0-0.7,0-1.1,0.1c-0.4,0.1-0.7,0.2-1,0.3c-0.1,0-0.2,0.1-0.2,0.1
			c-0.1,0-0.2,0-0.2,0c-0.2,0-0.3,0-0.4-0.1c-0.1-0.1-0.2-0.2-0.2-0.4c0-0.1,0-0.2,0.1-0.3c0.1-0.1,0.2-0.2,0.4-0.3
			c0.3-0.1,0.7-0.3,1.2-0.4c0.5-0.1,1-0.1,1.5-0.1c0.6,0,1.2,0.1,1.7,0.3c0.5,0.2,1,0.4,1.3,0.8c0.3,0.4,0.5,0.8,0.5,1.4v4.7h0.7
			c0.2,0,0.4,0,0.5,0.1c0.1,0.1,0.2,0.2,0.2,0.4c0,0.2-0.1,0.3-0.2,0.4s-0.3,0.1-0.6,0.1h-1C28.4,85.8,28.2,85.8,28.1,85.6z
			 M26.8,82c-0.5-0.1-0.9-0.2-1.3-0.2c-0.8,0-1.3,0.1-1.8,0.4s-0.6,0.6-0.6,1.1c0,0.6,0.2,1,0.6,1.2c0.4,0.3,0.9,0.4,1.5,0.4
			c0.4,0,0.8-0.1,1.1-0.2c0.4-0.2,0.7-0.3,0.9-0.5c0.2-0.2,0.4-0.4,0.5-0.6v-1.2C27.6,82.2,27.3,82.1,26.8,82z"/>
		<path class="st3" d="M34.6,85.6c-0.2-0.1-0.3-0.3-0.4-0.6L32,78.7c0-0.1-0.1-0.2-0.1-0.3c0-0.1,0-0.3,0.1-0.4s0.1-0.2,0.2-0.2
			c0.1-0.1,0.2-0.1,0.3-0.1c0.2,0,0.3,0,0.4,0.1s0.2,0.1,0.3,0.2c0.1,0.1,0.1,0.3,0.2,0.4l2.2,6.3c0.1,0.2,0.1,0.3,0.1,0.5
			c0,0.2,0,0.3-0.1,0.4c-0.1,0.1-0.2,0.1-0.4,0.1C34.9,85.8,34.7,85.7,34.6,85.6z M32.4,89.6c-0.1-0.1-0.2-0.2-0.2-0.4
			s0.1-0.3,0.2-0.4c0.1-0.1,0.4-0.1,0.7-0.2c0.3,0,0.5-0.1,0.8-0.4c0.2-0.2,0.4-0.5,0.6-0.9s0.4-1,0.7-1.7l2.4-7.2
			c0.1-0.2,0.1-0.3,0.2-0.4c0.1-0.1,0.1-0.2,0.3-0.3c0.1-0.1,0.2-0.1,0.4-0.1c0.2,0,0.3,0.1,0.5,0.2c0.1,0.1,0.2,0.3,0.2,0.5
			c0,0.1,0,0.2-0.1,0.4l-2.5,7.1c-0.4,1.1-0.7,1.9-1,2.4s-0.6,0.9-1,1.2s-0.8,0.4-1.4,0.4C32.7,89.8,32.5,89.7,32.4,89.6z"/>
		<path class="st3" d="M41.5,77.9c0.1-0.2,0.3-0.2,0.5-0.2c0.2,0,0.4,0.1,0.5,0.2c0.1,0.2,0.2,0.4,0.2,0.7v10.3
			c0,0.3-0.1,0.5-0.2,0.7c-0.1,0.2-0.3,0.2-0.5,0.2c-0.2,0-0.4-0.1-0.5-0.2c-0.1-0.2-0.2-0.4-0.2-0.7V78.6
			C41.3,78.3,41.4,78.1,41.5,77.9z M47.1,78.1c0.5,0.3,1,0.8,1.3,1.4c0.3,0.6,0.5,1.4,0.5,2.3c0,0.9-0.2,1.7-0.5,2.3
			c-0.3,0.6-0.8,1.1-1.3,1.4C46.6,85.8,46,86,45.3,86c-0.6,0-1.1-0.1-1.6-0.4c-0.5-0.3-0.9-0.6-1.1-1.1s-0.4-1-0.4-1.6
			c0-0.1,0-0.1,0-0.2s0.1-0.1,0.1-0.2s0.1-0.1,0.1-0.1c0.1,0,0.1,0,0.2,0.1s0.1,0.2,0.1,0.3c0,0.4,0.2,0.7,0.4,1
			c0.2,0.3,0.5,0.5,0.8,0.7c0.3,0.2,0.7,0.3,1,0.3c0.4,0,0.9-0.1,1.2-0.3c0.4-0.2,0.7-0.6,0.9-1s0.3-1,0.3-1.7
			c0-0.7-0.1-1.2-0.3-1.7s-0.5-0.8-0.9-1s-0.8-0.3-1.2-0.3c-0.4,0-0.7,0.1-1.1,0.3c-0.3,0.2-0.6,0.4-0.8,0.7c-0.2,0.3-0.3,0.6-0.4,1
			c0,0.1,0,0.2-0.1,0.3c-0.1,0.1-0.1,0.1-0.2,0.1s-0.2,0-0.2-0.1c-0.1-0.1-0.1-0.2-0.1-0.3c0-0.6,0.1-1.1,0.4-1.6
			c0.3-0.5,0.7-0.9,1.1-1.1c0.5-0.3,1-0.4,1.6-0.4C46,77.6,46.6,77.8,47.1,78.1z"/>
		<path class="st3" d="M52.2,85.5c-0.6-0.3-1.1-0.8-1.5-1.4c-0.4-0.6-0.6-1.4-0.6-2.3s0.2-1.7,0.6-2.3c0.4-0.6,0.9-1.1,1.5-1.4
			c0.6-0.3,1.3-0.4,2-0.4c0.7,0,1.3,0.1,2,0.4c0.6,0.3,1.1,0.8,1.5,1.4s0.6,1.4,0.6,2.3c0,0.9-0.2,1.7-0.6,2.3s-0.9,1.1-1.5,1.4
			c-0.6,0.3-1.3,0.5-2,0.5C53.4,86,52.8,85.8,52.2,85.5z M55.4,84.5c0.4-0.2,0.7-0.6,1-1c0.3-0.5,0.4-1,0.4-1.8
			c0-0.7-0.1-1.3-0.4-1.7s-0.6-0.8-1-1c-0.4-0.2-0.8-0.3-1.3-0.3c-0.4,0-0.9,0.1-1.3,0.3c-0.4,0.2-0.7,0.6-1,1s-0.4,1-0.4,1.7
			c0,0.7,0.1,1.3,0.4,1.8c0.3,0.5,0.6,0.8,1,1c0.4,0.2,0.8,0.3,1.3,0.3C54.6,84.9,55,84.8,55.4,84.5z"/>
		<path class="st3" d="M67.1,84.8c0.1,0.1,0.2,0.2,0.2,0.4c0,0.2-0.1,0.3-0.2,0.4c-0.1,0.1-0.3,0.1-0.6,0.1h-5.7
			c-0.3,0-0.5,0-0.6-0.1c-0.1-0.1-0.2-0.2-0.2-0.4c0-0.2,0.1-0.3,0.2-0.4c0.1-0.1,0.3-0.1,0.6-0.1h5.7
			C66.7,84.7,66.9,84.7,67.1,84.8z M62.9,84.8v-5.9h-1.7c-0.3,0-0.5,0-0.7-0.1c-0.1-0.1-0.2-0.2-0.2-0.4c0-0.2,0.1-0.3,0.2-0.4
			c0.1-0.1,0.4-0.1,0.7-0.1h2.2c0.3,0,0.5,0.1,0.7,0.2c0.2,0.2,0.2,0.4,0.2,0.7v6.1H62.9z M63,75.6c-0.2-0.1-0.3-0.3-0.4-0.4
			c-0.1-0.2-0.2-0.4-0.2-0.6c0-0.2,0.1-0.4,0.2-0.6c0.1-0.2,0.3-0.3,0.4-0.4c0.2-0.1,0.4-0.2,0.6-0.2c0.2,0,0.4,0.1,0.6,0.2
			c0.2,0.1,0.3,0.3,0.4,0.4c0.1,0.2,0.2,0.4,0.2,0.6s-0.1,0.4-0.2,0.6c-0.1,0.2-0.3,0.3-0.4,0.4s-0.4,0.2-0.6,0.2
			C63.4,75.7,63.2,75.7,63,75.6z"/>
		<path class="st3" d="M69.7,85.6c-0.1-0.2-0.2-0.4-0.2-0.7v-6.4c0-0.3,0.1-0.5,0.2-0.7c0.1-0.2,0.3-0.2,0.5-0.2s0.4,0.1,0.5,0.2
			c0.1,0.2,0.2,0.4,0.2,0.7v6.4c0,0.3-0.1,0.5-0.2,0.7c-0.1,0.2-0.3,0.2-0.5,0.2S69.8,85.8,69.7,85.6z M75.2,85.6
			C75,85.5,75,85.2,75,84.9v-3.6c0-0.9-0.1-1.6-0.4-2c-0.3-0.4-0.7-0.6-1.4-0.6c-0.4,0-0.8,0.1-1.1,0.3c-0.4,0.2-0.6,0.5-0.9,0.9
			c-0.2,0.4-0.3,0.7-0.3,1.1c0,0.1,0,0.2-0.1,0.3c0,0.1-0.1,0.1-0.2,0.1c-0.1,0-0.2,0-0.2-0.1c-0.1-0.1-0.1-0.2-0.1-0.4
			c0-0.5,0.1-1,0.4-1.6c0.3-0.5,0.7-0.9,1.2-1.3c0.5-0.3,1.1-0.5,1.7-0.5c0.9,0,1.6,0.3,2.1,0.9c0.5,0.6,0.7,1.5,0.7,2.7v3.8
			c0,0.3-0.1,0.5-0.2,0.7c-0.1,0.2-0.3,0.2-0.5,0.2C75.5,85.9,75.3,85.8,75.2,85.6z"/>
		<path class="st3" d="M78.3,78.7c-0.1-0.1-0.2-0.2-0.2-0.4c0-0.2,0.1-0.3,0.2-0.4c0.1-0.1,0.4-0.1,0.7-0.1h6c0.3,0,0.5,0,0.7,0.1
			c0.1,0.1,0.2,0.2,0.2,0.4c0,0.2-0.1,0.3-0.2,0.4c-0.1,0.1-0.4,0.1-0.7,0.1h-6C78.7,78.9,78.5,78.8,78.3,78.7z M82.3,84.5
			c0.3,0.3,0.6,0.4,1,0.4c0.4,0,0.7-0.1,0.9-0.3c0.2-0.2,0.4-0.5,0.5-1c0,0,0-0.1,0-0.1c0,0,0-0.1,0-0.1c0-0.2,0.1-0.3,0.2-0.4
			s0.2-0.2,0.4-0.2c0.2,0,0.3,0.1,0.4,0.2c0.1,0.1,0.1,0.3,0.1,0.5c0,0.5-0.1,0.9-0.4,1.3c-0.2,0.4-0.6,0.7-1,0.9
			c-0.4,0.2-0.8,0.3-1.3,0.3c-0.5,0-1-0.1-1.4-0.2c-0.4-0.2-0.7-0.4-1-0.8s-0.4-0.9-0.4-1.5v-7.7c0-0.3,0.1-0.5,0.2-0.7
			c0.1-0.2,0.3-0.2,0.5-0.2s0.4,0.1,0.5,0.2c0.1,0.2,0.2,0.4,0.2,0.7V83C81.9,83.7,82,84.2,82.3,84.5z"/>
		<path class="st3" d="M96.9,85.7c-0.1-0.1-0.2-0.4-0.2-0.7v-6.5c0-0.3,0.1-0.5,0.2-0.7c0.1-0.1,0.3-0.2,0.5-0.2s0.4,0.1,0.5,0.2
			c0.1,0.1,0.2,0.4,0.2,0.7v6.5c0,0.3-0.1,0.5-0.2,0.7c-0.1,0.1-0.3,0.2-0.5,0.2S97,85.9,96.9,85.7z M100.5,85.8
			c-0.1-0.1-0.2-0.3-0.2-0.6v-4c0-0.6,0-1.1-0.1-1.4s-0.2-0.5-0.3-0.7c-0.1-0.1-0.3-0.2-0.6-0.2c-0.2,0-0.5,0.1-0.7,0.3
			c-0.2,0.2-0.4,0.4-0.5,0.8c-0.1,0.3-0.2,0.7-0.2,1.1l-0.7-0.2c0-0.5,0.1-1,0.3-1.5c0.2-0.5,0.5-0.9,0.9-1.2s0.8-0.5,1.3-0.5
			c0.4,0,0.8,0.1,1,0.3s0.5,0.5,0.6,0.9s0.2,0.9,0.2,1.6v4.8c0,0.3-0.1,0.5-0.2,0.6s-0.3,0.2-0.5,0.2
			C100.8,85.9,100.6,85.9,100.5,85.8z M104.1,85.7c-0.1-0.1-0.2-0.4-0.2-0.7v-4c0-0.6,0-1.1-0.1-1.4s-0.2-0.5-0.3-0.7
			c-0.1-0.1-0.3-0.2-0.6-0.2c-0.2,0-0.5,0.1-0.7,0.3s-0.4,0.5-0.5,0.8c-0.1,0.3-0.2,0.7-0.2,1.1l-0.7-0.3c0-0.5,0.1-1,0.3-1.5
			c0.2-0.5,0.5-0.9,0.9-1.2c0.4-0.3,0.8-0.5,1.3-0.5c0.4,0,0.8,0.1,1,0.3s0.5,0.5,0.6,0.9c0.1,0.4,0.2,0.9,0.2,1.6v4.7
			c0,0.3-0.1,0.5-0.2,0.7c-0.1,0.1-0.3,0.2-0.5,0.2C104.4,85.9,104.2,85.9,104.1,85.7z"/>
		<path class="st3" d="M108.4,85.5c-0.6-0.3-1.1-0.8-1.5-1.4c-0.4-0.6-0.6-1.4-0.6-2.3s0.2-1.7,0.6-2.3c0.4-0.6,0.9-1.1,1.5-1.4
			c0.6-0.3,1.3-0.4,2-0.4c0.7,0,1.3,0.1,2,0.4c0.6,0.3,1.1,0.8,1.5,1.4s0.6,1.4,0.6,2.3c0,0.9-0.2,1.7-0.6,2.3s-0.9,1.1-1.5,1.4
			s-1.3,0.5-2,0.5C109.7,86,109,85.8,108.4,85.5z M111.6,84.5c0.4-0.2,0.7-0.6,1-1c0.3-0.5,0.4-1,0.4-1.8c0-0.7-0.1-1.3-0.4-1.7
			s-0.6-0.8-1-1c-0.4-0.2-0.8-0.3-1.3-0.3s-0.9,0.1-1.3,0.3c-0.4,0.2-0.7,0.6-1,1s-0.4,1-0.4,1.7c0,0.7,0.1,1.3,0.4,1.8
			c0.3,0.5,0.6,0.8,1,1c0.4,0.2,0.8,0.3,1.3,0.3C110.8,84.9,111.2,84.8,111.6,84.5z"/>
		<path class="st3" d="M119.1,77.6c0.6,0,1.1,0.1,1.6,0.4s0.9,0.7,1.1,1.1s0.4,1,0.4,1.6c0,0.1,0,0.2-0.1,0.3
			c-0.1,0.1-0.1,0.1-0.2,0.1c-0.1,0-0.2,0-0.2-0.1c-0.1-0.1-0.1-0.2-0.1-0.3c0-0.4-0.2-0.7-0.4-1c-0.2-0.3-0.5-0.5-0.8-0.7
			s-0.7-0.3-1-0.3c-0.5,0-0.9,0.1-1.2,0.3s-0.7,0.6-0.9,1s-0.3,1-0.3,1.7c0,0.7,0.1,1.2,0.3,1.7s0.5,0.8,0.9,1
			c0.4,0.2,0.8,0.3,1.2,0.3c0.4,0,0.7-0.1,1-0.3c0.3-0.2,0.6-0.4,0.8-0.7c0.2-0.3,0.4-0.6,0.4-1c0-0.1,0.1-0.3,0.1-0.3
			s0.1-0.1,0.2-0.1c0.1,0,0.1,0,0.1,0.1s0.1,0.1,0.1,0.2c0,0.1,0,0.1,0,0.2c0,0.6-0.1,1.1-0.4,1.6s-0.7,0.8-1.1,1.1
			c-0.5,0.3-1,0.4-1.6,0.4c-0.6,0-1.2-0.2-1.8-0.5s-1-0.8-1.3-1.4c-0.3-0.6-0.5-1.4-0.5-2.3c0-0.9,0.2-1.7,0.5-2.3s0.8-1.1,1.3-1.4
			C117.9,77.8,118.5,77.6,119.1,77.6z M122.4,85.9c-0.2,0-0.4-0.1-0.5-0.2c-0.1-0.2-0.2-0.4-0.2-0.7v-11c0-0.3,0.1-0.5,0.2-0.7
			c0.1-0.2,0.3-0.2,0.5-0.2c0.2,0,0.4,0.1,0.5,0.2c0.1,0.2,0.2,0.4,0.2,0.7v11c0,0.3-0.1,0.5-0.2,0.7
			C122.8,85.8,122.7,85.9,122.4,85.9z"/>
	</g>
</g>
<g>
	<g>
		<g>
			<path class="st3" d="M33.9,106.1c-0.1-0.1-0.1-0.2-0.1-0.3v-5.6c0-0.2,0-0.3,0.1-0.3c0.1-0.1,0.2-0.1,0.3-0.1
				c0.1,0,0.2,0,0.3,0.1c0.1,0.1,0.1,0.2,0.1,0.3v5.6c0,0.2,0,0.3-0.1,0.3c-0.1,0.1-0.2,0.1-0.3,0.1C34,106.2,33.9,106.2,33.9,106.1
				z M36.7,102.3c0.3,0.2,0.5,0.4,0.7,0.7c0.2,0.3,0.2,0.7,0.2,1.2c0,0.5-0.1,0.8-0.2,1.2c-0.2,0.3-0.4,0.6-0.7,0.7
				c-0.3,0.2-0.6,0.2-0.9,0.2c-0.3,0-0.6-0.1-0.8-0.2c-0.2-0.1-0.4-0.3-0.6-0.6c-0.1-0.2-0.2-0.5-0.2-0.8c0,0,0-0.1,0-0.1
				s0-0.1,0-0.1c0,0,0,0,0.1,0c0,0,0.1,0,0.1,0.1c0,0,0,0.1,0.1,0.2c0,0.2,0.1,0.4,0.2,0.5s0.3,0.3,0.4,0.4c0.2,0.1,0.3,0.1,0.5,0.1
				c0.2,0,0.4-0.1,0.6-0.2c0.2-0.1,0.3-0.3,0.5-0.5c0.1-0.2,0.2-0.5,0.2-0.9c0-0.3-0.1-0.6-0.2-0.9s-0.3-0.4-0.4-0.5
				c-0.2-0.1-0.4-0.2-0.6-0.2c-0.2,0-0.4,0-0.5,0.1c-0.2,0.1-0.3,0.2-0.4,0.4c-0.1,0.2-0.2,0.3-0.2,0.5c0,0.1,0,0.1-0.1,0.2
				c0,0-0.1,0.1-0.1,0.1c0,0-0.1,0-0.1-0.1c0,0,0-0.1,0-0.1c0-0.3,0.1-0.6,0.2-0.8c0.1-0.2,0.3-0.4,0.6-0.6c0.2-0.1,0.5-0.2,0.8-0.2
				C36.2,102,36.5,102.1,36.7,102.3z"/>
			<path class="st3" d="M39.9,106.1c-0.1-0.1-0.1-0.2-0.2-0.3l-1.1-3.2c0-0.1,0-0.1,0-0.2c0-0.1,0-0.1,0-0.2c0-0.1,0.1-0.1,0.1-0.1
				c0.1,0,0.1,0,0.2,0c0.1,0,0.1,0,0.2,0s0.1,0.1,0.1,0.1s0.1,0.1,0.1,0.2l1.1,3.2c0,0.1,0,0.2,0,0.3c0,0.1,0,0.2-0.1,0.2
				c0,0-0.1,0.1-0.2,0.1C40.1,106.2,40,106.1,39.9,106.1z M38.8,108.1c-0.1,0-0.1-0.1-0.1-0.2c0-0.1,0-0.2,0.1-0.2s0.2-0.1,0.3-0.1
				c0.2,0,0.3-0.1,0.4-0.2c0.1-0.1,0.2-0.3,0.3-0.5s0.2-0.5,0.3-0.9l1.2-3.7c0-0.1,0.1-0.2,0.1-0.2s0.1-0.1,0.1-0.1s0.1,0,0.2,0
				c0.1,0,0.2,0,0.2,0.1s0.1,0.1,0.1,0.2c0,0.1,0,0.1,0,0.2l-1.3,3.6c-0.2,0.5-0.4,1-0.5,1.2c-0.1,0.3-0.3,0.5-0.5,0.6
				c-0.2,0.1-0.4,0.2-0.7,0.2C39,108.2,38.8,108.2,38.8,108.1z"/>
			<path class="st3" d="M47.8,106.2c-0.1-0.1-0.1-0.1-0.1-0.2c0-0.1,0-0.1,0-0.2l1.5-4.5c0-0.1,0.1-0.2,0.2-0.3
				c0.1-0.1,0.2-0.1,0.3-0.1H50c0.1,0,0.2,0,0.3,0.1c0.1,0.1,0.1,0.2,0.2,0.3l1.5,4.5c0,0.1,0,0.1,0,0.2c0,0.1,0,0.2-0.1,0.2
				c-0.1,0.1-0.1,0.1-0.2,0.1c-0.1,0-0.2,0-0.3-0.1s-0.1-0.2-0.2-0.3l-1.4-4.3c0-0.2-0.1-0.3-0.1-0.4h0.1c0,0.1,0,0.3-0.1,0.4
				l-1.4,4.3c0,0.1-0.1,0.2-0.1,0.3c-0.1,0.1-0.1,0.1-0.3,0.1C47.9,106.3,47.8,106.2,47.8,106.2z M48.8,104.2H51l0.1,0.6h-2.5
				L48.8,104.2z"/>
			<path class="st3" d="M53.1,106.1c-0.1-0.1-0.1-0.2-0.2-0.3c0-0.2-0.1-0.8-0.2-1.8c-0.1-1-0.2-1.5-0.2-1.6c0-0.1,0-0.2,0.1-0.3
				c0.1-0.1,0.1-0.1,0.3-0.1c0.1,0,0.2,0,0.3,0.1c0.1,0.1,0.1,0.2,0.1,0.3l0.3,3.4l-0.1,0l0.8-2.9c0-0.1,0.1-0.2,0.2-0.3
				c0.1-0.1,0.2-0.1,0.3-0.1s0.2,0,0.3,0.1c0.1,0.1,0.2,0.2,0.2,0.3l0.8,2.8l-0.1,0l0.3-3.3c0-0.2,0-0.3,0.1-0.3
				c0.1-0.1,0.1-0.1,0.3-0.1c0.1,0,0.2,0,0.2,0.1c0.1,0.1,0.1,0.2,0.1,0.3c0,0.1-0.1,0.5-0.2,1.4c-0.1,0.9-0.2,1.5-0.3,2
				c0,0.1-0.1,0.3-0.2,0.3s-0.2,0.1-0.4,0.1c-0.2,0-0.3,0-0.4-0.1c-0.1-0.1-0.2-0.2-0.2-0.3l-0.7-2.7h0.1l-0.7,2.7
				c0,0.1-0.1,0.2-0.1,0.2c0,0.1-0.1,0.1-0.2,0.1s-0.2,0-0.3,0C53.3,106.2,53.2,106.2,53.1,106.1z"/>
			<path class="st3" d="M56.9,106.8c0.1-0.1,0.2-0.1,0.3-0.1h4.4c0.1,0,0.3,0,0.3,0.1c0.1,0.1,0.1,0.1,0.1,0.2c0,0.1,0,0.2-0.1,0.2
				c-0.1,0.1-0.2,0.1-0.3,0.1h-4.4c-0.2,0-0.3,0-0.3-0.1c-0.1,0-0.1-0.1-0.1-0.2C56.8,106.9,56.8,106.8,56.9,106.8z"/>
			<path class="st3" d="M62.1,106.1c-0.1-0.1-0.1-0.2-0.1-0.3c0-0.1,0.1-0.8,0.2-2c0.1-1.2,0.2-2.1,0.3-2.5c0-0.1,0.1-0.3,0.1-0.3
				c0.1-0.1,0.2-0.1,0.3-0.1h0c0.1,0,0.3,0,0.4,0.1s0.2,0.2,0.2,0.3l0.9,3.9h-0.2l0.9-3.9c0-0.1,0.1-0.2,0.2-0.3
				c0.1-0.1,0.2-0.1,0.4-0.1h0c0.1,0,0.2,0,0.3,0.1s0.1,0.2,0.1,0.3c0.1,0.4,0.2,1.3,0.3,2.5c0.1,1.3,0.2,1.9,0.2,2.1
				c0,0.1,0,0.2-0.1,0.3c-0.1,0.1-0.1,0.1-0.2,0.1c-0.1,0-0.2,0-0.3-0.1c-0.1-0.1-0.1-0.2-0.1-0.3l-0.4-4.4h0.2l-1,4.1
				c0,0.1-0.1,0.2-0.2,0.3c-0.1,0.1-0.2,0.1-0.3,0.1c-0.1,0-0.2,0-0.3-0.1c-0.1-0.1-0.1-0.2-0.2-0.3l-0.9-4h0.2l-0.4,4.4
				c0,0.2,0,0.3-0.1,0.3c-0.1,0.1-0.1,0.1-0.3,0.1C62.2,106.2,62.1,106.2,62.1,106.1z"/>
			<path class="st3" d="M70.1,106.1c-0.1-0.1-0.1-0.1-0.1-0.3l0-0.2c-0.1,0.1-0.2,0.2-0.3,0.3c-0.1,0.1-0.3,0.2-0.5,0.2
				c-0.2,0.1-0.4,0.1-0.7,0.1c-0.3,0-0.6-0.1-0.8-0.2c-0.2-0.1-0.4-0.3-0.6-0.5c-0.1-0.2-0.2-0.4-0.2-0.7c0-0.3,0.1-0.5,0.2-0.7
				c0.2-0.2,0.4-0.3,0.6-0.4c0.3-0.1,0.6-0.1,0.9-0.1c0.2,0,0.3,0,0.5,0s0.3,0.1,0.4,0.1c0.1,0,0.2,0.1,0.3,0.1v-0.6
				c0-0.2-0.1-0.4-0.2-0.5c-0.1-0.1-0.3-0.2-0.4-0.3s-0.4-0.1-0.6-0.1c-0.2,0-0.4,0-0.5,0.1c-0.2,0-0.4,0.1-0.5,0.2c0,0-0.1,0-0.1,0
				s-0.1,0-0.1,0c-0.1,0-0.2,0-0.2-0.1c-0.1,0-0.1-0.1-0.1-0.2c0-0.1,0-0.1,0.1-0.2c0,0,0.1-0.1,0.2-0.1c0.2-0.1,0.4-0.1,0.6-0.2
				s0.5-0.1,0.8-0.1c0.3,0,0.6,0,0.9,0.1s0.5,0.2,0.7,0.4c0.2,0.2,0.3,0.4,0.3,0.7v2.4H71c0.1,0,0.2,0,0.2,0.1
				c0.1,0,0.1,0.1,0.1,0.2c0,0.1,0,0.2-0.1,0.2c-0.1,0.1-0.2,0.1-0.3,0.1h-0.5C70.3,106.2,70.2,106.2,70.1,106.1z M69.4,104.3
				c-0.2-0.1-0.5-0.1-0.7-0.1c-0.4,0-0.7,0.1-0.9,0.2c-0.2,0.1-0.3,0.3-0.3,0.6c0,0.3,0.1,0.5,0.3,0.6s0.4,0.2,0.8,0.2
				c0.2,0,0.4,0,0.6-0.1s0.3-0.2,0.5-0.3c0.1-0.1,0.2-0.2,0.3-0.3v-0.6C69.9,104.4,69.7,104.3,69.4,104.3z"/>
			<path class="st3" d="M72.2,106.1c-0.1-0.1-0.1-0.2-0.1-0.3v-3.3c0-0.2,0-0.3,0.1-0.3c0.1-0.1,0.2-0.1,0.3-0.1
				c0.1,0,0.2,0,0.3,0.1c0.1,0.1,0.1,0.2,0.1,0.3v3.3c0,0.2,0,0.3-0.1,0.3c-0.1,0.1-0.2,0.1-0.3,0.1
				C72.3,106.2,72.3,106.2,72.2,106.1z M75,106.1c-0.1-0.1-0.1-0.2-0.1-0.3v-1.8c0-0.5-0.1-0.8-0.2-1c-0.1-0.2-0.4-0.3-0.7-0.3
				c-0.2,0-0.4,0.1-0.6,0.2c-0.2,0.1-0.3,0.3-0.4,0.4c-0.1,0.2-0.2,0.4-0.2,0.6c0,0.1,0,0.1,0,0.1c0,0-0.1,0-0.1,0
				c0,0-0.1,0-0.1-0.1c0,0,0-0.1,0-0.2c0-0.3,0.1-0.5,0.2-0.8c0.1-0.3,0.3-0.5,0.6-0.6c0.3-0.2,0.5-0.2,0.9-0.2
				c0.5,0,0.8,0.1,1.1,0.4s0.4,0.7,0.4,1.4v1.9c0,0.2,0,0.3-0.1,0.3c-0.1,0.1-0.2,0.1-0.3,0.1C75.2,106.2,75.1,106.2,75,106.1z"/>
			<path class="st3" d="M80,103.8c0.3,0.2,0.4,0.5,0.4,0.9c0,0.3-0.1,0.6-0.2,0.8c-0.2,0.2-0.4,0.4-0.7,0.5
				c-0.3,0.1-0.6,0.2-0.9,0.2c-0.3,0-0.6-0.1-0.9-0.2c-0.3-0.1-0.5-0.2-0.7-0.4c-0.1,0-0.1-0.1-0.1-0.2s0-0.1,0-0.2
				c0-0.1,0-0.1,0-0.1c0,0,0.1-0.1,0.1-0.1c0,0,0.1,0,0.1,0c0.1,0,0.1,0,0.2,0.1s0.1,0.1,0.2,0.1c0.1,0.1,0.3,0.2,0.4,0.3
				c0.2,0.1,0.4,0.1,0.6,0.1c0.2,0,0.4,0,0.6-0.1c0.2-0.1,0.3-0.2,0.4-0.3c0.1-0.2,0.2-0.3,0.2-0.6c0-0.2-0.1-0.4-0.2-0.5
				c-0.1-0.1-0.3-0.3-0.5-0.3c-0.2-0.1-0.4-0.1-0.7-0.1c-0.1,0-0.2,0-0.2-0.1c-0.1,0-0.1-0.1-0.1-0.2c0-0.1,0-0.2,0.1-0.2
				c0.1,0,0.1-0.1,0.2-0.1c0.2,0,0.4,0,0.6-0.1c0.2-0.1,0.3-0.2,0.4-0.3c0.1-0.1,0.2-0.3,0.2-0.5c0-0.2,0-0.4-0.1-0.5
				s-0.2-0.2-0.4-0.3c-0.2-0.1-0.3-0.1-0.5-0.1c-0.2,0-0.4,0-0.5,0.1s-0.3,0.2-0.4,0.3c0,0-0.1,0.1-0.1,0.1s-0.1,0.1-0.1,0.1
				c0,0-0.1,0-0.1,0c-0.1,0-0.1,0-0.1,0c0,0-0.1-0.1-0.1-0.1s0-0.1,0-0.1c0-0.1,0-0.1,0-0.2c0-0.1,0.1-0.1,0.1-0.2
				c0.2-0.2,0.4-0.3,0.6-0.4c0.2-0.1,0.5-0.2,0.8-0.2c0.3,0,0.6,0,0.9,0.1c0.3,0.1,0.5,0.2,0.6,0.5c0.2,0.2,0.2,0.5,0.2,0.8
				c0,0.3-0.1,0.5-0.2,0.7s-0.3,0.3-0.5,0.5c-0.2,0.1-0.4,0.2-0.6,0.2l0-0.1C79.4,103.5,79.7,103.6,80,103.8z"/>
			<path class="st3" d="M81.8,101c0.1,0,0.2-0.1,0.3-0.1h2.5c0.2,0,0.3,0,0.3,0.1c0.1,0.1,0.1,0.1,0.1,0.3c0,0.1,0,0.2,0,0.2
				s-0.1,0.1-0.1,0.2c-0.4,0.6-0.8,1.3-1.1,1.9c-0.3,0.7-0.4,1.4-0.4,2.2c0,0.1,0,0.3-0.1,0.3s-0.2,0.1-0.3,0.1
				c-0.1,0-0.2,0-0.3-0.1s-0.1-0.2-0.1-0.4c0-0.6,0.1-1.2,0.3-1.7s0.4-1.1,0.7-1.5c0.3-0.5,0.5-0.8,0.8-1.1l0.2,0.1h-2.6
				c-0.1,0-0.3,0-0.3-0.1s-0.1-0.1-0.1-0.2C81.7,101.1,81.8,101,81.8,101z"/>
			<path class="st3" d="M87.3,106c-0.3-0.2-0.5-0.5-0.7-0.9s-0.3-0.9-0.3-1.6s0.1-1.2,0.3-1.6s0.4-0.7,0.7-0.9
				c0.3-0.2,0.6-0.3,0.9-0.3c0.3,0,0.6,0.1,0.9,0.3c0.3,0.2,0.5,0.5,0.7,0.9c0.2,0.4,0.3,0.9,0.3,1.6s-0.1,1.1-0.3,1.6
				c-0.2,0.4-0.4,0.7-0.7,0.9s-0.6,0.3-0.9,0.3C87.9,106.3,87.6,106.2,87.3,106z M88.8,105.5c0.2-0.2,0.3-0.4,0.4-0.7
				c0.1-0.3,0.1-0.7,0.1-1.2s0-0.9-0.1-1.2c-0.1-0.3-0.2-0.6-0.4-0.7c-0.2-0.2-0.4-0.2-0.6-0.2c-0.2,0-0.4,0.1-0.6,0.2
				s-0.3,0.4-0.4,0.7c-0.1,0.3-0.1,0.7-0.1,1.2s0,0.9,0.1,1.2c0.1,0.3,0.2,0.6,0.4,0.7c0.2,0.2,0.4,0.2,0.6,0.2
				C88.4,105.7,88.6,105.6,88.8,105.5z M87.9,103.9c-0.1-0.1-0.1-0.2-0.1-0.3c0-0.1,0-0.2,0.1-0.3c0.1-0.1,0.2-0.1,0.3-0.1
				c0.1,0,0.2,0,0.3,0.1c0.1,0.1,0.1,0.2,0.1,0.3c0,0.1,0,0.2-0.1,0.3c-0.1,0.1-0.2,0.1-0.3,0.1S88,104,87.9,103.9z"/>
			<path class="st3" d="M94.4,103.8c0.3,0.2,0.4,0.5,0.4,0.9c0,0.3-0.1,0.6-0.2,0.8c-0.2,0.2-0.4,0.4-0.7,0.5
				c-0.3,0.1-0.6,0.2-0.9,0.2c-0.3,0-0.6-0.1-0.9-0.2c-0.3-0.1-0.5-0.2-0.7-0.4c-0.1,0-0.1-0.1-0.1-0.2s0-0.1,0-0.2
				c0-0.1,0-0.1,0-0.1c0,0,0.1-0.1,0.1-0.1c0,0,0.1,0,0.1,0c0.1,0,0.1,0,0.2,0.1s0.1,0.1,0.2,0.1c0.1,0.1,0.3,0.2,0.4,0.3
				c0.2,0.1,0.4,0.1,0.6,0.1c0.2,0,0.4,0,0.6-0.1c0.2-0.1,0.3-0.2,0.4-0.3c0.1-0.2,0.2-0.3,0.2-0.6c0-0.2-0.1-0.4-0.2-0.5
				c-0.1-0.1-0.3-0.3-0.5-0.3c-0.2-0.1-0.4-0.1-0.7-0.1c-0.1,0-0.2,0-0.2-0.1c-0.1,0-0.1-0.1-0.1-0.2c0-0.1,0-0.2,0.1-0.2
				c0.1,0,0.1-0.1,0.2-0.1c0.2,0,0.4,0,0.6-0.1c0.2-0.1,0.3-0.2,0.4-0.3c0.1-0.1,0.2-0.3,0.2-0.5c0-0.2,0-0.4-0.1-0.5
				s-0.2-0.2-0.4-0.3c-0.2-0.1-0.3-0.1-0.5-0.1c-0.2,0-0.4,0-0.5,0.1s-0.3,0.2-0.4,0.3c0,0-0.1,0.1-0.1,0.1s-0.1,0.1-0.1,0.1
				c0,0-0.1,0-0.1,0c-0.1,0-0.1,0-0.1,0c0,0-0.1-0.1-0.1-0.1s0-0.1,0-0.1c0-0.1,0-0.1,0-0.2c0-0.1,0.1-0.1,0.1-0.2
				c0.2-0.2,0.4-0.3,0.6-0.4c0.2-0.1,0.5-0.2,0.8-0.2c0.3,0,0.6,0,0.9,0.1c0.3,0.1,0.5,0.2,0.6,0.5c0.2,0.2,0.2,0.5,0.2,0.8
				c0,0.3-0.1,0.5-0.2,0.7s-0.3,0.3-0.5,0.5c-0.2,0.1-0.4,0.2-0.6,0.2l0-0.1C93.8,103.5,94.1,103.6,94.4,103.8z"/>
		</g>
	</g>
</g>
</svg>
